%
M48
M72
T01C0.02400
T02C0.02756
T03C0.03937
%
T01
X51250Y71000
X156250Y51000
X156250Y41000
X186250Y116000
X206250Y116000
X206250Y131000
X251250Y176000
T02
X203415Y174937
X203415Y167063
T03
X46250Y13500
X56250Y13500
X66250Y13500
X76250Y13500
X86250Y13500
X96250Y13500
X106250Y13500
X116250Y13500
X126250Y13500
X136250Y13500
X146250Y13500
X156250Y13500
X166250Y13500
X176250Y13500
X186250Y13500
X196250Y13500
X206250Y13500
X216250Y13500
X226250Y13500
X236250Y13500
X246250Y13500
X256250Y13500
X266250Y13500
X266250Y23500
X256250Y23500
X246250Y23500
X236250Y23500
X226250Y23500
X216250Y23500
X206250Y23500
X196250Y23500
X186250Y23500
X176250Y23500
X166250Y23500
X156250Y23500
X146250Y23500
X136250Y23500
X126250Y23500
X116250Y23500
X106250Y23500
X96250Y23500
X86250Y23500
X76250Y23500
X66250Y23500
X56250Y23500
X46250Y23500
X91250Y81000
X91250Y91000
X91250Y101000
X91250Y111000
X91250Y121000
X91250Y131000
X91250Y141000
X91250Y151000
X91250Y161000
X91250Y171000
X86250Y203500
X76250Y203500
X66250Y203500
X56250Y203500
X46250Y203500
X46250Y213500
X56250Y213500
X66250Y213500
X76250Y213500
X86250Y213500
X96250Y213500
X106250Y213500
X116250Y213500
X126250Y213500
X136250Y213500
X146250Y213500
X156250Y213500
X166250Y213500
X176250Y213500
X186250Y213500
X196250Y213500
X206250Y213500
X216250Y213500
X226250Y213500
X236250Y213500
X246250Y213500
X256250Y213500
X266250Y213500
X266250Y203500
X256250Y203500
X246250Y203500
X236250Y203500
X226250Y203500
X216250Y203500
X206250Y203500
X196250Y203500
X186250Y203500
X176250Y203500
X166250Y203500
X156250Y203500
X146250Y203500
X136250Y203500
X126250Y203500
X116250Y203500
X106250Y203500
X96250Y203500
X161250Y171000
X161250Y161000
X161250Y151000
X161250Y141000
X161250Y131000
X161250Y121000
X161250Y111000
X161250Y101000
X161250Y91000
X161250Y81000
M30
