G75*
%MOIN*%
%OFA0B0*%
%FSLAX25Y25*%
%IPPOS*%
%LPD*%
%AMOC8*
5,1,8,0,0,1.08239X$1,22.5*
%
%ADD10R,0.07137X0.07137*%
%ADD11C,0.07137*%
%ADD12C,0.07137*%
%ADD13C,0.07200*%
D10*
X0266250Y0023500D03*
X0266250Y0213500D03*
D11*
X0046250Y0013500D03*
X0056250Y0013500D03*
X0066250Y0013500D03*
X0076250Y0013500D03*
X0086250Y0013500D03*
X0096250Y0013500D03*
X0106250Y0013500D03*
X0116250Y0013500D03*
X0126250Y0013500D03*
X0136250Y0013500D03*
X0146250Y0013500D03*
X0156250Y0013500D03*
X0166250Y0013500D03*
X0176250Y0013500D03*
X0186250Y0013500D03*
X0196250Y0013500D03*
X0206250Y0013500D03*
X0216250Y0013500D03*
X0226250Y0013500D03*
X0236250Y0013500D03*
X0246250Y0013500D03*
X0256250Y0013500D03*
X0266250Y0013500D03*
X0256250Y0023500D03*
X0246250Y0023500D03*
X0236250Y0023500D03*
X0226250Y0023500D03*
X0216250Y0023500D03*
X0206250Y0023500D03*
X0196250Y0023500D03*
X0186250Y0023500D03*
X0176250Y0023500D03*
X0166250Y0023500D03*
X0156250Y0023500D03*
X0146250Y0023500D03*
X0136250Y0023500D03*
X0126250Y0023500D03*
X0116250Y0023500D03*
X0106250Y0023500D03*
X0096250Y0023500D03*
X0086250Y0023500D03*
X0076250Y0023500D03*
X0066250Y0023500D03*
X0056250Y0023500D03*
X0046250Y0023500D03*
X0046250Y0203500D03*
X0056250Y0203500D03*
X0066250Y0203500D03*
X0076250Y0203500D03*
X0086250Y0203500D03*
X0096250Y0203500D03*
X0106250Y0203500D03*
X0116250Y0203500D03*
X0126250Y0203500D03*
X0136250Y0203500D03*
X0146250Y0203500D03*
X0156250Y0203500D03*
X0166250Y0203500D03*
X0176250Y0203500D03*
X0186250Y0203500D03*
X0196250Y0203500D03*
X0206250Y0203500D03*
X0216250Y0203500D03*
X0226250Y0203500D03*
X0236250Y0203500D03*
X0246250Y0203500D03*
X0256250Y0203500D03*
X0266250Y0203500D03*
X0256250Y0213500D03*
X0246250Y0213500D03*
X0236250Y0213500D03*
X0226250Y0213500D03*
X0216250Y0213500D03*
X0206250Y0213500D03*
X0196250Y0213500D03*
X0186250Y0213500D03*
X0176250Y0213500D03*
X0166250Y0213500D03*
X0156250Y0213500D03*
X0146250Y0213500D03*
X0136250Y0213500D03*
X0126250Y0213500D03*
X0116250Y0213500D03*
X0106250Y0213500D03*
X0096250Y0213500D03*
X0086250Y0213500D03*
X0076250Y0213500D03*
X0066250Y0213500D03*
X0056250Y0213500D03*
X0046250Y0213500D03*
D12*
X0088081Y0171000D02*
X0094419Y0171000D01*
X0094419Y0161000D02*
X0088081Y0161000D01*
X0088081Y0151000D02*
X0094419Y0151000D01*
X0094419Y0141000D02*
X0088081Y0141000D01*
X0088081Y0131000D02*
X0094419Y0131000D01*
X0094419Y0121000D02*
X0088081Y0121000D01*
X0088081Y0111000D02*
X0094419Y0111000D01*
X0094419Y0101000D02*
X0088081Y0101000D01*
X0088081Y0091000D02*
X0094419Y0091000D01*
X0094419Y0081000D02*
X0088081Y0081000D01*
X0158081Y0081000D02*
X0164419Y0081000D01*
X0164419Y0091000D02*
X0158081Y0091000D01*
X0158081Y0101000D02*
X0164419Y0101000D01*
X0164419Y0111000D02*
X0158081Y0111000D01*
X0158081Y0121000D02*
X0164419Y0121000D01*
X0164419Y0131000D02*
X0158081Y0131000D01*
X0158081Y0141000D02*
X0164419Y0141000D01*
X0164419Y0151000D02*
X0158081Y0151000D01*
X0158081Y0161000D02*
X0164419Y0161000D01*
X0164419Y0171000D02*
X0158081Y0171000D01*
D13*
X0203415Y0167063D03*
X0203415Y0174937D03*
M02*
