G75*
%MOIN*%
%OFA0B0*%
%FSLAX25Y25*%
%IPPOS*%
%LPD*%
%AMOC8*
5,1,8,0,0,1.08239X$1,22.5*
%
%ADD10R,0.07137X0.07137*%
%ADD11C,0.07137*%
%ADD12R,0.03713X0.14973*%
%ADD13C,0.07137*%
%ADD14R,0.06312X0.04737*%
%ADD15R,0.11430X0.07099*%
%ADD16C,0.07200*%
D10*
X0266250Y0023500D03*
X0266250Y0213500D03*
D11*
X0046250Y0013500D03*
X0056250Y0013500D03*
X0066250Y0013500D03*
X0076250Y0013500D03*
X0086250Y0013500D03*
X0096250Y0013500D03*
X0106250Y0013500D03*
X0116250Y0013500D03*
X0126250Y0013500D03*
X0136250Y0013500D03*
X0146250Y0013500D03*
X0156250Y0013500D03*
X0166250Y0013500D03*
X0176250Y0013500D03*
X0186250Y0013500D03*
X0196250Y0013500D03*
X0206250Y0013500D03*
X0216250Y0013500D03*
X0226250Y0013500D03*
X0236250Y0013500D03*
X0246250Y0013500D03*
X0256250Y0013500D03*
X0266250Y0013500D03*
X0256250Y0023500D03*
X0246250Y0023500D03*
X0236250Y0023500D03*
X0226250Y0023500D03*
X0216250Y0023500D03*
X0206250Y0023500D03*
X0196250Y0023500D03*
X0186250Y0023500D03*
X0176250Y0023500D03*
X0166250Y0023500D03*
X0156250Y0023500D03*
X0146250Y0023500D03*
X0136250Y0023500D03*
X0126250Y0023500D03*
X0116250Y0023500D03*
X0106250Y0023500D03*
X0096250Y0023500D03*
X0086250Y0023500D03*
X0076250Y0023500D03*
X0066250Y0023500D03*
X0056250Y0023500D03*
X0046250Y0023500D03*
X0046250Y0203500D03*
X0056250Y0203500D03*
X0066250Y0203500D03*
X0076250Y0203500D03*
X0086250Y0203500D03*
X0096250Y0203500D03*
X0106250Y0203500D03*
X0116250Y0203500D03*
X0126250Y0203500D03*
X0136250Y0203500D03*
X0146250Y0203500D03*
X0156250Y0203500D03*
X0166250Y0203500D03*
X0176250Y0203500D03*
X0186250Y0203500D03*
X0196250Y0203500D03*
X0206250Y0203500D03*
X0216250Y0203500D03*
X0226250Y0203500D03*
X0236250Y0203500D03*
X0246250Y0203500D03*
X0256250Y0203500D03*
X0266250Y0203500D03*
X0256250Y0213500D03*
X0246250Y0213500D03*
X0236250Y0213500D03*
X0226250Y0213500D03*
X0216250Y0213500D03*
X0206250Y0213500D03*
X0196250Y0213500D03*
X0186250Y0213500D03*
X0176250Y0213500D03*
X0166250Y0213500D03*
X0156250Y0213500D03*
X0146250Y0213500D03*
X0136250Y0213500D03*
X0126250Y0213500D03*
X0116250Y0213500D03*
X0106250Y0213500D03*
X0096250Y0213500D03*
X0086250Y0213500D03*
X0076250Y0213500D03*
X0066250Y0213500D03*
X0056250Y0213500D03*
X0046250Y0213500D03*
D12*
X0211093Y0135843D03*
X0216093Y0135843D03*
X0221093Y0135843D03*
X0226093Y0135843D03*
X0231093Y0135843D03*
X0231093Y0116157D03*
X0226093Y0116157D03*
X0221093Y0116157D03*
X0216093Y0116157D03*
X0211093Y0116157D03*
D13*
X0164419Y0121000D02*
X0158081Y0121000D01*
X0158081Y0111000D02*
X0164419Y0111000D01*
X0164419Y0101000D02*
X0158081Y0101000D01*
X0158081Y0091000D02*
X0164419Y0091000D01*
X0164419Y0081000D02*
X0158081Y0081000D01*
X0094419Y0081000D02*
X0088081Y0081000D01*
X0088081Y0091000D02*
X0094419Y0091000D01*
X0094419Y0101000D02*
X0088081Y0101000D01*
X0088081Y0111000D02*
X0094419Y0111000D01*
X0094419Y0121000D02*
X0088081Y0121000D01*
X0088081Y0131000D02*
X0094419Y0131000D01*
X0094419Y0141000D02*
X0088081Y0141000D01*
X0088081Y0151000D02*
X0094419Y0151000D01*
X0094419Y0161000D02*
X0088081Y0161000D01*
X0088081Y0171000D02*
X0094419Y0171000D01*
X0158081Y0171000D02*
X0164419Y0171000D01*
X0164419Y0161000D02*
X0158081Y0161000D01*
X0158081Y0151000D02*
X0164419Y0151000D01*
X0164419Y0141000D02*
X0158081Y0141000D01*
X0158081Y0131000D02*
X0164419Y0131000D01*
D14*
X0055581Y0084740D03*
X0055581Y0077260D03*
X0046919Y0081000D03*
X0030581Y0077260D03*
X0021919Y0081000D03*
X0030581Y0084740D03*
X0030581Y0054740D03*
X0021919Y0051000D03*
X0030581Y0047260D03*
X0046919Y0051000D03*
X0055581Y0047260D03*
X0055581Y0054740D03*
D15*
X0096250Y0056512D03*
X0096250Y0045488D03*
X0116250Y0045488D03*
X0116250Y0056512D03*
X0141250Y0056512D03*
X0141250Y0045488D03*
X0166250Y0045488D03*
X0166250Y0056512D03*
X0191250Y0056512D03*
X0191250Y0045488D03*
X0131250Y0115488D03*
X0131250Y0126512D03*
X0126250Y0145488D03*
X0126250Y0156512D03*
X0126250Y0170488D03*
X0126250Y0181512D03*
D16*
X0203415Y0174937D03*
X0203415Y0167063D03*
M02*
